<svg xmlns="http://www.w3.org/2000/svg" width="25" height="25" viewBox="0 0 25 25"><defs><style>.a{fill:#898989;}</style></defs><g transform="translate(0)"><path class="a" d="M7.358,25a7.37,7.37,0,0,1-5.285-1.974A7.072,7.072,0,0,1,0,17.669V7.331A6.969,6.969,0,0,1,7.358,0H17.738a7.268,7.268,0,0,1,5.281,2.067A7.142,7.142,0,0,1,25,7.331V17.669a7.436,7.436,0,0,1-2.074,5.357A7.362,7.362,0,0,1,17.642,25ZM4.336,4.334A4.719,4.719,0,0,0,3.125,7.7v9.505a4.764,4.764,0,0,0,1.3,3.458,4.874,4.874,0,0,0,3.366,1.208h9.422a4.721,4.721,0,0,0,3.368-1.208,4.426,4.426,0,0,0,1.3-3.371V7.79a4.869,4.869,0,0,0-1.208-3.37,4.626,4.626,0,0,0-3.456-1.3H7.7A4.715,4.715,0,0,0,4.336,4.334ZM6.249,12.5a6.237,6.237,0,0,1,6.207-6.251,6.25,6.25,0,1,1,0,12.5A6.236,6.236,0,0,1,6.249,12.5Zm3.128,0A3.125,3.125,0,1,0,12.5,9.375,3.125,3.125,0,0,0,9.377,12.5Zm7.811-6.251a1.562,1.562,0,1,1,1.563,1.563A1.541,1.541,0,0,1,17.189,6.249Z"/></g></svg>